<?xml version="1.0" encoding="UTF-8" standalone="no"?>
<svg
   xmlns:dc="http://purl.org/dc/elements/1.1/"
   xmlns:cc="http://creativecommons.org/ns#"
   xmlns:rdf="http://www.w3.org/1999/02/22-rdf-syntax-ns#"
   xmlns:svg="http://www.w3.org/2000/svg"
   xmlns="http://www.w3.org/2000/svg"
   xmlns:sodipodi="http://sodipodi.sourceforge.net/DTD/sodipodi-0.dtd"
   xmlns:inkscape="http://www.inkscape.org/namespaces/inkscape"
   width="18.996975mm"
   height="18.917669mm"
   viewBox="0 0 18.996975 18.917669"
   version="1.1"
   id="svg8037"
   inkscape:version="1.0.1 (1.0.1+r73)"
   sodipodi:docname="design_1.svg">
  <defs
     id="defs8031" />
  <sodipodi:namedview
     id="base"
     pagecolor="#ffffff"
     bordercolor="#666666"
     borderopacity="1.0"
     inkscape:pageopacity="0.0"
     inkscape:pageshadow="2"
     inkscape:zoom="0.35"
     inkscape:cx="-24.100207"
     inkscape:cy="255.74991"
     inkscape:document-units="mm"
     inkscape:current-layer="layer1"
     inkscape:document-rotation="0"
     showgrid="false"
     fit-margin-top="1"
     fit-margin-right="1"
     fit-margin-bottom="1"
     fit-margin-left="1"
     inkscape:window-width="1853"
     inkscape:window-height="1025"
     inkscape:window-x="67"
     inkscape:window-y="27"
     inkscape:window-maximized="1" />
  <metadata
     id="metadata8034">
    <rdf:RDF>
      <cc:Work
         rdf:about="">
        <dc:format>image/svg+xml</dc:format>
        <dc:type
           rdf:resource="http://purl.org/dc/dcmitype/StillImage" />
        <dc:title></dc:title>
      </cc:Work>
    </rdf:RDF>
  </metadata>
  <g
     inkscape:label="Capa 1"
     inkscape:groupmode="layer"
     id="layer1"
     transform="translate(-112.20985,-80.499502)">
    <g
       id="g7850"
       transform="matrix(0.35277777,0,0,-0.35277777,37.764863,243.15667)">
      <g
         id="g294"
         transform="translate(233.4099,422.6257)">
        <path
           d="m 0,0 -0.97,0.98 0.52,-1.27 0.11,-0.25 0.09,-0.23 0.4,0.4 z M -2.65,2.67 -2.89,2.16 -2.92,2.1 -2.85,2.12 -2.32,2.34 Z M -4.86,1.87 -5,1.81 -5.2,1.73 -7.99,0.58 -8.01,0 l 2.52,1.04 0.22,0.09 0.13,0.05 0.34,0.14 0.28,0.69 z M 6.96,6.74 5.96,6.32 5.42,6.1 -2.58,2.81 -2.73,2.75 -3.26,2.53 -4.52,2.01 -4.86,1.87 -5,1.81 -5.2,1.73 -7.99,0.58 -9.49,-0.04 -15.4,-2.47 -16.68,-3 h -0.01 c -0.26,-0.1 -0.49,-0.25 -0.69,-0.44 -0.26,-0.23 -0.47,-0.52 -0.61,-0.85 0,-0.01 -0.01,-0.01 -0.01,-0.02 -0.12,-0.3 -0.17,-0.61 -0.17,-0.92 0,-0.03 0,-0.06 0.01,-0.09 0.01,-0.28 0.06,-0.54 0.17,-0.8 l 1.36,-3.31 0.53,-1.29 0.02,-0.04 0.14,-0.34 0.06,-0.15 c 0.03,-0.07 0.06,-0.14 0.11,-0.21 0.17,-0.35 0.43,-0.64 0.76,-0.86 h 1.3 c 0.17,-0.01 0.35,-0.01 0.52,0 0.01,-0.01 0.02,-0.01 0.03,0 0.03,-0.01 0.05,-0.01 0.08,-0.01 h 0.01 c 0.02,0 0.04,0.01 0.05,0.01 h 0.01 c 0.04,0 0.08,-0.01 0.12,-0.01 0.04,-0.01 0.08,0 0.12,0.01 0.01,-0.01 0.03,-0.01 0.05,0 h 0.52 l 0.44,0.18 0.43,0.18 0.49,0.2 0.31,0.13 0.41,0.16 v 0.01 c 0.04,0.06 0.07,0.13 0.1,0.2 l 0.21,0.5 -0.05,-0.02 -0.31,-0.13 -0.34,-0.14 -0.64,-0.27 -1.8,-0.74 h -0.01 c -0.14,-0.05 -0.28,-0.09 -0.42,-0.11 -0.09,-0.02 -0.18,-0.03 -0.27,-0.03 h -0.01 c -0.21,0 -0.43,0.04 -0.63,0.12 -0.03,0.01 -0.06,0.02 -0.09,0.03 -0.03,0.01 -0.06,0.03 -0.09,0.05 -0.29,0.13 -0.53,0.33 -0.71,0.58 -0.08,0.11 -0.15,0.24 -0.2,0.37 l -0.01,0.01 -0.26,0.62 -1.85,4.5 c -0.18,0.43 -0.19,0.9 -0.03,1.32 0,0.03 0.02,0.07 0.03,0.1 0.19,0.46 0.55,0.82 1.01,1.01 l 0.11,0.05 6.89,2.83 1.48,0.61 2.52,1.04 0.22,0.09 0.13,0.05 0.34,0.14 1.88,0.78 0.07,0.02 0.53,0.22 0.67,0.28 0.68,-1.64 0.52,-1.27 0.11,-0.25 0.09,-0.23 0.4,0.4 L 0,0 -1.16,2.82 5.82,5.7 6.37,5.92 6.41,5.83 l 0.7,0.69 0.2,0.2 0.6,0.21 0.33,0.33 z M -5,1.81 -5.2,1.73 -7.99,0.58 -8.01,0 l 2.52,1.04 0.22,0.09 0.13,0.05 0.34,0.14 0.28,0.69 -0.34,-0.14 z m 2.08,0.29 0.07,0.02 -0.04,0.04 z M 0,0 l -0.97,0.98 0.52,-1.27 0.11,-0.25 0.09,-0.23 0.4,0.4 z"
           style="fill:#41404d;fill-opacity:1;fill-rule:nonzero;stroke:none"
           id="path296" />
      </g>
      <g
         id="g298"
         transform="translate(261.7102,428.3254)">
        <path
           d="m 0,0 c -0.05,-0.25 -0.15,-0.5 -0.29,-0.72 l -0.03,-0.08 -0.04,-0.03 -0.85,-0.66 -0.76,-0.31 -3.69,9.01 -0.02,0.05 0.65,0.21 0.41,0.13 0.33,0.11 0.71,-0.05 0.66,-0.29 0.78,-0.96 2.1,-5.13 0.13,-1.05 z m -9.89,-4.84 -3.52,8.57 7.53,3.1 3.52,-8.57 z M 0.15,1.31 -1.96,6.43 c -0.5,1.22 -1.9,1.8 -3.12,1.3 l -14.98,-6.17 -0.33,-0.33 1.44,0.51 2.54,0.9 -0.27,-0.26 2.78,1.15 3.52,-8.57 -7.53,-3.1 -2.78,6.74 -0.41,-0.39 2.7,-6.56 -7.53,-3.1 -1.51,3.67 -0.41,-0.39 1.43,-3.48 -9.06,-3.73 -2.31,-0.95 -0.32,-0.13 -0.21,-0.5 c -0.03,-0.07 -0.06,-0.14 -0.1,-0.2 l 0.47,0.19 0.9,0.37 19.1,7.86 v 0.01 l 8.02,3.3 8.78,3.61 c 0.59,0.25 1.05,0.7 1.3,1.29 0.24,0.59 0.24,1.25 0,1.84"
           style="fill:#41404d;fill-opacity:1;fill-rule:nonzero;stroke:none"
           id="path300" />
      </g>
      <g
         id="g302"
         transform="translate(235.2898,416.6755)">
        <path
           d="m 0,0 -9.06,-3.73 7.63,7.21 z"
           style="fill:#ffffff;fill-opacity:1;fill-rule:nonzero;stroke:none"
           id="path304" />
      </g>
      <g
         id="g306"
         transform="translate(245.03,430.7053)">
        <path
           d="m 0,0 -4.01,-3.78 2.78,-6.74 7.53,3.1 -3.52,8.57 z"
           style="fill:#ffffff;fill-opacity:1;fill-rule:nonzero;stroke:none"
           id="path308" />
      </g>
      <g
         id="g310"
         transform="translate(235.78,416.8757)">
        <path
           d="M 0,0 7.53,3.1 4.83,9.66 -1.51,3.67 Z"
           style="fill:#ffffff;fill-opacity:1;fill-rule:nonzero;stroke:none"
           id="path312" />
      </g>
      <g
         id="g314"
         transform="translate(239.78,428.5456)">
        <path
           d="m 0,0 -7.53,-3.1 1.31,-3.19 6.26,6.2 z"
           style="fill:#ffffff;fill-opacity:1;fill-rule:nonzero;stroke:none"
           id="path316" />
      </g>
      <g
         id="g318"
         transform="translate(248.3,432.0554)">
        <path
           d="m 0,0 3.52,-8.57 7.53,3.1 -3.52,8.57 z"
           style="fill:#ffffff;fill-opacity:1;fill-rule:nonzero;stroke:none"
           id="path320" />
      </g>
      <g
         id="g322"
         transform="translate(259.26,434.5554)">
        <path
           d="M 0,0 C -0.29,0.72 -0.99,1.15 -1.72,1.15 -1.96,1.15 -2.2,1.11 -2.43,1.01 L -2.94,0.8 0.58,-7.77 1.1,-7.56 c 0.46,0.19 0.82,0.55 1.01,1.01 0.19,0.46 0.19,0.96 0,1.42 z"
           style="fill:#dadada;fill-opacity:1;fill-rule:nonzero;stroke:none"
           id="path324" />
      </g>
      <g
         id="g326"
         transform="translate(240.2702,428.7453)">
        <path
           d="M 0,0 0.75,-1.82 4.76,1.96 Z"
           style="fill:#dadada;fill-opacity:1;fill-rule:nonzero;stroke:none"
           id="path328" />
      </g>
      <g
         id="g330"
         transform="translate(233.5603,422.2556)">
        <path
           d="M 0,0 0.71,-1.71 7.05,4.28 6.26,6.2 Z"
           style="fill:#dadada;fill-opacity:1;fill-rule:nonzero;stroke:none"
           id="path332" />
      </g>
      <g
         id="g334"
         transform="translate(261.3698,428.0056)">
        <path
           d="m 0,0 c -0.19,-0.46 -0.55,-0.82 -1.01,-1.01 l -0.52,-0.21 -3.52,8.57 0.51,0.21 c 0.23,0.1 0.47,0.14 0.71,0.14 0.73,0 1.43,-0.43 1.72,-1.15 L 0,1.42 C 0.19,0.96 0.19,0.46 0,0 m 0.21,1.56 -2.08,5.06 c -0.4,0.97 -1.42,1.49 -2.41,1.3 l -0.41,-0.13 -0.63,-0.26 3.69,-9.01 0.76,0.31 0.85,0.66 c 0.03,0.04 0.05,0.07 0.07,0.11 l 0.29,0.72 c 0.07,0.4 0.04,0.83 -0.13,1.24"
           style="fill:#41404d;fill-opacity:1;fill-rule:nonzero;stroke:none"
           id="path336" />
      </g>
      <g
         id="g338"
         transform="translate(233.8601,420.1555)">
        <path
           d="m 0,0 -7.63,-7.21 -2.31,-0.95 v 0.7 l 0.04,0.04 9.2,9.12 0.13,-0.31 z"
           style="fill:#dadada;fill-opacity:1;fill-rule:nonzero;stroke:none"
           id="path340" />
      </g>
      <g
         id="g342"
         transform="translate(240.7199,429.3454)">
        <path
           d="M 0,0 -0.2,-0.2 2.04,0.72 Z"
           style="fill:#41404d;fill-opacity:1;fill-rule:nonzero;stroke:none"
           id="path344" />
      </g>
      <g
         id="g346"
         transform="translate(214.2702,415.3356)">
        <path
           d="M 0,0 C -0.4,0.41 -0.4,1.06 0,1.47 -0.15,0.99 -0.15,0.48 0,0"
           style="fill:#ffffff;fill-opacity:1;fill-rule:nonzero;stroke:none"
           id="path348" />
      </g>
      <g
         id="g350"
         transform="translate(245.4299,434.4055)">
        <path
           d="m 0,0 -5.06,-5.04 -0.71,-0.71 -0.29,0.29 -4.63,4.65 -0.25,-0.51 4.34,-4.36 0.45,-0.45 -5.77,-5.75 -0.1,0.1 -0.97,0.98 -1.35,1.36 -0.33,0.33 -0.24,-0.51 0.04,-0.04 2.4,-2.41 0.18,-0.18 -0.07,-0.07 -7.37,-7.35 -1.06,-1.05 -0.49,-0.48 v -0.01 l -0.3,-0.29 -0.2,-0.2 -0.48,-0.49 -0.91,-0.91 -0.49,-0.48 c -0.18,-0.18 -0.38,-0.31 -0.6,-0.4 h -0.01 c -0.15,-0.07 -0.31,-0.11 -0.47,-0.12 -0.02,-0.01 -0.04,-0.01 -0.05,0 -0.07,-0.02 -0.13,-0.02 -0.2,-0.02 H -25 c -0.06,0 -0.12,0 -0.18,0.02 -0.01,-0.01 -0.02,-0.01 -0.03,0 -0.16,0.02 -0.31,0.06 -0.46,0.12 h -0.01 c -0.22,0.09 -0.43,0.22 -0.61,0.4 l -1.38,1.38 -0.98,0.99 -1.55,1.56 c -0.34,0.34 -0.52,0.79 -0.53,1.23 -0.03,0.51 0.15,1.02 0.53,1.4 l 0.01,0.01 0.07,0.07 0.57,0.56 1.15,1.16 0.98,0.97 5.91,5.89 1.7,1.69 0.05,0.06 0.41,0.4 0.52,0.52 2.51,-2.51 0.21,0.53 -0.2,0.2 -2.15,2.16 5.35,5.33 0.17,0.17 0.25,0.62 0.94,0.94 4.37,4.36 -0.34,-0.72 1.17,1.17 z"
           style="fill:#ffffff;fill-opacity:1;fill-rule:nonzero;stroke:none"
           id="path352" />
      </g>
      <g
         id="g354"
         transform="translate(251.57,440.5256)">
        <path
           d="m 0,0 -5.77,-5.75 -6.54,6.57 5.77,5.75 z"
           style="fill:#ffffff;fill-opacity:1;fill-rule:nonzero;stroke:none"
           id="path356" />
      </g>
      <g
         id="g358"
         transform="translate(253.1003,442.3054)">
        <path
           d="m 0,0 -0.521,-0.99 -0.559,-0.6 -7.06,6.68 0.619,0.62 C -6.99,6.24 -6.26,6.44 -5.58,6.3 h 0.01 C -5.16,6.22 -4.771,6.02 -4.45,5.7 L -3.62,4.86 -0.46,1.7 c 0.08,-0.08 0.149,-0.16 0.2,-0.24 L -0.101,1.21 -0.05,1.12 V 1.11 Z"
           style="fill:#ffffff;fill-opacity:1;fill-rule:nonzero;stroke:none"
           id="path360" />
      </g>
      <g
         id="g362"
         transform="translate(253.1003,442.3054)">
        <path
           d="m 0,0 -0.521,-0.99 -0.559,-0.6 -7.06,6.68 -0.06,0.05 1.08,0.99 0.67,0.24 0.72,0.01 0.15,-0.08 h 0.01 L -4.63,5.82 -3.62,4.86 -0.601,2.02 -0.26,1.46 -0.101,1.21 -0.05,1.12 V 1.11 Z"
           style="fill:#dadada;fill-opacity:1;fill-rule:nonzero;stroke:none"
           id="path364" />
      </g>
      <g
         id="g366"
         transform="translate(252.5798,441.3156)">
        <path
           d="m 0,0 -0.56,-0.6 -7.06,6.68 -0.06,0.05 1.08,0.99 0.67,0.24 0.72,0.01 0.15,-0.08 h 0.01 c 0.41,-0.08 0.8,-0.28 1.12,-0.6 L -3.1,5.85 -0.08,3.01 0.26,2.45 C 0.33,2.37 0.38,2.29 0.42,2.2 L 0.47,2.11 V 2.1 L 0.521,0.99 Z m -6.78,-6.54 -6.54,6.57 5.77,5.75 6.54,-6.57 z M 0.14,2.99 -3.77,6.91 C -4.71,7.85 -6.22,7.85 -7.16,6.92 L -18.63,-4.52 -19.12,-5 l -1.67,-1.67 -6.14,-6.12 -0.1,-0.11 -0.409,-0.4 -1.221,-1.22 -7.19,-7.17 h -0.01 l -0.869,-0.88 -0.441,-0.43 -0.05,-0.05 -0.49,-0.49 -0.01,-0.01 c -0.28,-0.28 -0.48,-0.61 -0.59,-0.96 -0.08,-0.24 -0.11,-0.48 -0.11,-0.73 v -0.01 c 0,-0.1 0.01,-0.19 0.02,-0.29 0.01,-0.08 0.03,-0.16 0.05,-0.24 v -0.03 c 0.01,-0.06 0.02,-0.11 0.04,-0.17 0.02,-0.07 0.05,-0.13 0.081,-0.2 0.109,-0.28 0.279,-0.53 0.5,-0.76 l 2.459,-2.47 0.55,-0.55 0.491,-0.49 0.409,-0.41 c 0.05,-0.05 0.11,-0.1 0.16,-0.15 h 0.78 c 0.17,-0.01 0.35,-0.01 0.52,0 -0.16,0.02 -0.31,0.06 -0.46,0.12 h -0.01 c -0.22,0.09 -0.43,0.22 -0.609,0.4 l -1.381,1.38 -0.98,0.99 -1.55,1.56 c -0.339,0.34 -0.52,0.79 -0.53,1.23 -0.03,0.51 0.151,1.02 0.53,1.4 l 0.01,0.01 0.07,0.07 0.57,0.56 1.15,1.16 0.98,0.97 5.91,5.89 1.7,1.69 0.05,0.06 0.41,0.4 0.521,0.52 2.509,-2.51 0.21,0.53 -0.2,0.2 -2.15,2.16 5.35,5.33 0.17,0.17 0.25,0.62 0.94,0.94 4.37,4.36 -0.34,-0.72 1.17,1.17 6.55,-6.56 -5.06,-5.04 -0.71,-0.71 -0.29,0.29 -4.63,4.65 -0.25,-0.51 4.34,-4.36 0.45,-0.45 -5.77,-5.75 -0.1,0.1 -0.97,0.98 -1.35,1.36 -0.33,0.33 -0.24,-0.51 0.04,-0.04 2.4,-2.41 0.181,-0.18 -0.071,-0.07 -7.37,-7.35 -1.059,-1.05 -0.491,-0.48 v -0.01 l -0.299,-0.29 -0.201,-0.2 -0.48,-0.49 -0.91,-0.91 -0.49,-0.48 c -0.18,-0.18 -0.379,-0.31 -0.6,-0.4 h -0.01 c -0.15,-0.07 -0.309,-0.11 -0.47,-0.12 0.44,-0.01 0.83,-0.01 1.01,-0.01 0.11,0 0.21,0 0.3,0.01 0.05,0.05 0.101,0.09 0.15,0.14 l 0.42,0.42 0.54,0.53 0.01,0.01 0.43,0.44 0.06,0.06 0.31,0.3 9.37,9.34 8.03,8.01 0.33,0.33 11.06,11.03 c 0.94,0.94 0.94,2.45 0.01,3.39"
           style="fill:#41404d;fill-opacity:1;fill-rule:nonzero;stroke:none"
           id="path368" />
      </g>
      <g
         id="g370"
         transform="translate(238.05,440.5153)">
        <path
           d="m 0,0 -0.34,-0.72 -2.97,-6.2 -0.25,-0.51 -3.73,-7.79 -0.24,-0.51 -4.82,-10.05 -1.06,-1.05 -0.789,-0.777 5.259,13.297 0.21,0.53 3.17,7.86 0.25,0.62 z"
           style="fill:#dadada;fill-opacity:1;fill-rule:nonzero;stroke:none"
           id="path372" />
      </g>
      <g
         id="g374"
         transform="translate(229.32,426.7355)">
        <path
           d="m 0,0 -0.21,-0.53 0.11,-0.11 0.2,-0.2 0.73,-0.74 0.37,-0.37 0.24,0.51 z M 8.39,13.06 8.73,13.78 4.36,9.42 3.42,8.48 3.17,7.86 3.42,8.11 3.5,8.03 3.7,7.83 5.17,6.35 5.42,6.86 3.8,8.48 4.09,8.77 Z m 14.63,1.5 -0.39,-0.39 -6.55,6.56 0.4,0.39 c 0.36,0.36 0.83,0.54 1.31,0.54 0.48,0 0.96,-0.18 1.32,-0.54 l 3.91,-3.93 c 0.73,-0.72 0.72,-1.91 0,-2.63 m 0.71,2.12 v 0.01 l -0.05,0.09 -0.16,0.25 -0.34,0.56 -3.02,2.84 -0.83,0.84 c -0.32,0.32 -0.71,0.52 -1.12,0.6 H 18.2 l -0.15,0.08 -0.72,-0.01 -0.67,-0.24 -1.08,-0.99 0.06,-0.05 7.06,-6.68 0.56,0.6 0.52,0.99 z"
           style="fill:#41404d;fill-opacity:1;fill-rule:nonzero;stroke:none"
           id="path376" />
      </g>
      <g
         id="g378"
         transform="translate(233.1599,421.8557)">
        <path
           d="M 0,0 0.7,-1.7 1.11,-1.31 0.4,0.4 Z"
           style="fill:#41404d;fill-opacity:1;fill-rule:nonzero;stroke:none"
           id="path380" />
      </g>
      <g
         id="g382"
         transform="translate(245.03,430.7053)">
        <path
           d="m 0,0 0.27,0.26 -2.54,-0.9 -2.24,-0.92 -0.7,-0.69 0.79,-1.92 0.41,0.39 -0.75,1.82 z"
           style="fill:#41404d;fill-opacity:1;fill-rule:nonzero;stroke:none"
           id="path384" />
      </g>
      <g
         id="g386"
         transform="translate(239.5603,450.9953)">
        <path
           d="m 0,0 -0.18,-0.43 -5.92,-14.25 -0.27,-0.65 -0.37,-0.9 -3.39,-8.14 -0.21,-0.53 -0.67,-1.6 -0.28,-0.69 -2.18,-5.24 -2.17,-5.22 -0.27,-0.64 -0.41,-0.99 -0.12,-0.31 -0.01,-0.01 c -0.06,-0.14 -0.13,-0.28 -0.23,-0.4 -0.19,-0.29 -0.47,-0.52 -0.78,-0.68 h -0.01 c -0.03,0 -0.06,-0.01 -0.091,-0.01 -0.089,-0.01 -0.189,-0.01 -0.299,-0.01 -0.18,0 -0.57,0 -1.01,0.01 -0.02,-0.01 -0.04,-0.01 -0.05,0 -0.04,-0.01 -0.08,-0.02 -0.12,-0.01 -0.03,-0.01 -0.05,-0.01 -0.08,-0.01 h -0.01 l -0.03,0.02 h -0.01 l -0.36,0.15 -0.89,0.37 -0.91,0.38 -0.37,0.15 -0.39,0.17 -3.23,1.34 c -0.15,0.06 -0.28,0.16 -0.38,0.27 v 1.5 l 0.33,0.81 0.04,0.09 1.13,2.73 8.56,20.61 v 0.01 l 2.42,5.82 3.99,9.62 h 0.01 l 0.03,0.07 0.02,0.04 0.2,0.5 c 0.08,0.2 0.19,0.38 0.32,0.54 l 0.01,0.01 c 0.369,0.48 0.92,0.77 1.51,0.85 h 0.02 c 0.31,0.03 0.63,0 0.95,-0.1 h 0.03 L -1.311,3.23 C -1.08,3.14 -0.88,3.01 -0.7,2.86 0.12,2.18 0.43,1.03 0,0"
           style="fill:#ffffff;fill-opacity:1;fill-rule:nonzero;stroke:none"
           id="path388" />
      </g>
      <g
         id="g390"
         transform="translate(239.3811,450.5681)">
        <path
           d="m 0,0 -9.047,3.757 0.658,1.304 0.538,0.46 0.668,0.264 L -5.951,5.663 -0.835,3.538 0,2.892 0.448,1.871 0.314,0.757 Z"
           style="fill:#dadada;fill-opacity:1;fill-rule:nonzero;stroke:none"
           id="path392" />
      </g>
      <g
         id="g394"
         transform="translate(225.1301,416.3395)">
        <path
           d="M 0,0 1.207,28.361 -1.207,22.548 V -2.994 Z"
           style="fill:#dadada;fill-opacity:1;fill-rule:nonzero;stroke:none"
           id="path396" />
      </g>
      <g
         id="g398"
         transform="translate(229.1198,426.9352)">
        <path
           d="M 0,0 -1.26,0.52 -3.04,1.26 -3.479,1.44 -3.5,0.88 l 0.05,-0.02 3.17,-1.32 0.21,-0.09 -0.04,-0.08 -0.8,-1.95 0.2,0.08 0.7,1.77 0.21,0.53 z m -7.04,-16.27 c -0.06,-0.04 -0.12,-0.07 -0.189,-0.1 -0.081,-0.03 -0.161,-0.06 -0.241,-0.08 -0.16,-0.04 -0.32,-0.06 -0.48,-0.06 h -0.01 c -0.24,0 -0.47,0.04 -0.7,0.14 h -0.01 l -1.8,0.75 -0.62,0.26 -0.01,0.01 -0.65,0.26 -0.04,0.02 -1.98,0.82 c -0.95,0.4 -1.4,1.49 -1.01,2.44 l 0.01,0.01 0.35,0.85 0.55,1.32 0.06,0.16 0.54,1.28 0.18,0.44 4.47,10.76 3.42,-1.42 1.221,-0.51 0.479,-0.2 0.05,-0.02 3.17,-1.32 0.21,-0.09 -0.04,-0.08 -0.8,-1.95 -0.29,-0.69 -2.76,-6.65 -1.24,-2.98 -0.75,-1.82 -0.27,-0.64 c -0.16,-0.39 -0.45,-0.71 -0.82,-0.91 m 8.6,43.8 0.211,0.51 c 0.399,0.95 1.489,1.4 2.439,1.01 l 5.11,-2.12 c 0.46,-0.19 0.82,-0.55 1.01,-1.01 0.191,-0.46 0.191,-0.97 0,-1.43 l -0.21,-0.51 z m 5.23,-11.56 -8.56,3.55 3.13,7.52 8.55,-3.55 z m -3.71,-7.85 -6.16,2.56 -2.01,0.83 2.28,5.47 V 17 L -1.97,19.03 6.59,15.48 3.84,8.88 3.46,7.96 Z M 0.14,-0.06 0,0 -1.26,0.52 -3.04,1.26 -3.479,1.44 -3.57,1.48 -5.2,2.16 -8.42,3.5 -5.3,11.02 -5.2,10.98 -3.11,10.11 2.67,7.71 3.2,7.49 3.26,7.47 Z m 10.68,26.18 c -0.24,0.59 -0.7,1.05 -1.29,1.3 l -5.12,2.12 c -0.59,0.25 -1.24,0.25 -1.83,0 C 1.99,29.3 1.53,28.84 1.28,28.25 L 0.97,27.49 -2.36,19.48 -5.68,11.47 h -0.01 l -3.32,-8.01 -5.24,-12.62 -0.01,-0.01 -0.7,-1.69 v -0.01 l -0.13,-0.31 -0.17,-0.41 v -1.84 c 0.09,-0.24 0.22,-0.45 0.38,-0.64 0.24,-0.29 0.54,-0.52 0.901,-0.67 l 2.5,-1.03 0.709,-0.3 0.59,-0.24 0.18,-0.08 0.58,-0.24 c 0.17,-0.01 0.35,-0.01 0.52,0 0.01,-0.01 0.02,-0.01 0.03,0 0.03,-0.01 0.05,-0.01 0.08,-0.01 h 0.01 c 0.03,-0.01 0.06,-0.01 0.09,-0.01 h 0.01 c 0.03,0 0.05,0 0.08,0.01 0.04,-0.01 0.08,0 0.121,0.01 0.009,-0.01 0.029,-0.01 0.049,0 0.44,-0.01 0.83,-0.01 1.01,-0.01 0.11,0 0.21,0 0.3,0.01 0.03,0 0.06,0.01 0.09,0.01 h 0.01 c 0.291,0.04 0.48,0.11 0.68,0.2 h 0.01 c 0.2,0.18 0.37,0.4 0.5,0.64 v 0.01 c 0.04,0.06 0.07,0.13 0.101,0.2 l 0.209,0.5 0.01,0.04 0.31,0.74 0.04,0.09 0.19,0.46 v 0.01 l 4.46,10.74 0.281,0.69 0.529,1.26 0.21,0.53 0.011,0.01 3.329,8.01 0.05,0.12 0.22,0.53 0.17,0.41 0.27,0.65 0.27,0.64 2.35,5.66 3.33,8.01 0.31,0.76 c 0.24,0.59 0.25,1.24 0,1.83 M 0,0 -1.26,0.52 -3.04,1.26 -3.479,1.44 -3.5,0.88 l 0.05,-0.02 3.17,-1.32 0.21,-0.09 -0.04,-0.08 -0.8,-1.95 0.2,0.08 0.7,1.77 0.21,0.53 z"
           style="fill:#41404d;fill-opacity:1;fill-rule:nonzero;stroke:none"
           id="path400" />
      </g>
      <g
         id="g402"
         transform="translate(223.9231,425.9577)">
        <path
           d="m 0,0 h -9.796 v 30.001 c 0,1.114 0.902,2.016 2.016,2.016 h 5.512 C -1.016,32.017 0,31.002 0,29.75 Z"
           style="fill:#f4c151;fill-opacity:1;fill-rule:nonzero;stroke:none"
           id="path404" />
      </g>
      <g
         id="g406"
         transform="translate(214.1272,425.9577)">
        <path
           d="m 0,0 h 9.796 v -13.359 c 0,-1.225 -0.993,-2.218 -2.218,-2.218 H 1.034 C 0.463,-15.577 0,-15.114 0,-14.542 Z"
           style="fill:#ffffff;fill-opacity:1;fill-rule:nonzero;stroke:none"
           id="path408" />
      </g>
      <g
         id="g410"
         transform="translate(221.7946,410.8278)">
        <path
           d="M 0,0 H -5.54 C -6.566,0 -7.402,0.836 -7.402,1.863 V 14.864 H 1.863 V 1.863 C 1.863,0.836 1.027,0 0,0 m 0,47.413 h -5.54 c -1.319,0 -2.393,-1.074 -2.393,-2.394 0,-0.146 0.119,-0.265 0.265,-0.265 0.147,0 0.266,0.119 0.266,0.265 0,1.027 0.836,1.863 1.862,1.863 H 0 c 1.027,0 1.863,-0.836 1.863,-1.863 V 15.395 h -9.265 v 2.928 c 0,0.147 -0.119,0.265 -0.266,0.265 -0.146,0 -0.265,-0.118 -0.265,-0.265 V 1.863 c 0,-1.32 1.074,-2.393 2.393,-2.393 H 0 c 1.32,0 2.394,1.073 2.394,2.393 v 43.156 c 0,1.32 -1.074,2.394 -2.394,2.394"
           style="fill:#41404d;fill-opacity:1;fill-rule:nonzero;stroke:none"
           id="path412" />
      </g>
      <g
         id="g414"
         transform="translate(220.467,413.0876)">
        <path
           d="m 0,0 c -0.513,0 -0.931,0.417 -0.931,0.931 0,0.514 0.418,0.931 0.931,0.931 0.513,0 0.931,-0.417 0.931,-0.931 C 0.931,0.417 0.513,0 0,0 m 0,2.393 c -0.806,0 -1.461,-0.656 -1.461,-1.462 0,-0.806 0.655,-1.462 1.461,-1.462 0.806,0 1.461,0.656 1.461,1.462 0,0.806 -0.655,1.462 -1.461,1.462"
           style="fill:#41404d;fill-opacity:1;fill-rule:nonzero;stroke:none"
           id="path416" />
      </g>
      <g
         id="g418"
         transform="translate(221.6628,423.8591)">
        <path
           d="m 0,0 h -5.74 c -0.147,0 -0.266,-0.119 -0.266,-0.265 0,-0.147 0.119,-0.266 0.266,-0.266 H 0 c 0.147,0 0.266,0.119 0.266,0.266 C 0.266,-0.119 0.147,0 0,0"
           style="fill:#41404d;fill-opacity:1;fill-rule:nonzero;stroke:none"
           id="path420" />
      </g>
      <g
         id="g422"
         transform="translate(215.9226,454.8864)">
        <path
           d="M 0,0 H 5.626 C 5.773,0 5.892,0.119 5.892,0.265 5.892,0.412 5.773,0.53 5.626,0.53 H 0 C -0.146,0.53 -0.266,0.412 -0.266,0.265 -0.266,0.119 -0.146,0 0,0"
           style="fill:#41404d;fill-opacity:1;fill-rule:nonzero;stroke:none"
           id="path424" />
      </g>
      <g
         id="g426"
         transform="translate(215.9226,452.9196)">
        <path
           d="m 0,0 h 3.697 c 0.147,0 0.266,0.119 0.266,0.266 0,0.146 -0.119,0.265 -0.266,0.265 H 0 C -0.146,0.531 -0.266,0.412 -0.266,0.266 -0.266,0.119 -0.146,0 0,0"
           style="fill:#41404d;fill-opacity:1;fill-rule:nonzero;stroke:none"
           id="path428" />
      </g>
      <g
         id="g430"
         transform="translate(214.1267,433.0104)">
        <path
           d="m 0,0 c 0.147,0 0.266,0.119 0.266,0.265 v 17.672 c 0,0.146 -0.119,0.265 -0.266,0.265 -0.146,0 -0.265,-0.119 -0.265,-0.265 V 0.265 C -0.265,0.119 -0.146,0 0,0"
           style="fill:#41404d;fill-opacity:1;fill-rule:nonzero;stroke:none"
           id="path432" />
      </g>
      <g
         id="g434"
         transform="translate(261.7102,428.3254)">
        <path
           d="M 0,0 -0.29,-0.72 C -0.15,-0.5 -0.05,-0.25 0,0"
           style="fill:#41404d;fill-opacity:1;fill-rule:nonzero;stroke:none"
           id="path436" />
      </g>
      <g
         id="g438"
         transform="translate(259.57,434.7355)">
        <path
           d="M 0,0 -0.78,0.96 -1.44,1.25 -2.15,1.3 -2.48,1.19 c 0.99,0.19 2.01,-0.33 2.41,-1.3 l 2.08,-5.06 c 0.17,-0.41 0.2,-0.84 0.13,-1.24 l 0.09,0.23 -0.13,1.05 z"
           style="fill:#41404d;fill-opacity:1;fill-rule:nonzero;stroke:none"
           id="path440" />
      </g>
      <g
         id="g442"
         transform="translate(256.03,435.5856)">
        <path
           d="M 0,0 0.02,-0.05 0.65,0.21 Z"
           style="fill:#41404d;fill-opacity:1;fill-rule:nonzero;stroke:none"
           id="path444" />
      </g>
      <g
         id="g446"
         transform="translate(261.3904,427.5256)">
        <path
           d="M 0,0 0.03,0.08 C 0.01,0.04 -0.01,0.01 -0.04,-0.03 Z"
           style="fill:#41404d;fill-opacity:1;fill-rule:nonzero;stroke:none"
           id="path448" />
      </g>
      <g
         id="g3480"
         transform="translate(220.4001,410.3054)">
        <path
           d="M 0,0 C 0.08,-0.01 0.16,-0.01 0.24,0 0.17,-0.02 0.11,-0.02 0.04,-0.02 H 0.03 c -0.06,0 -0.12,0 -0.18,0.02 0.05,-0.01 0.09,-0.01 0.14,0 z"
           style="fill:#dadada;fill-opacity:1;fill-rule:nonzero;stroke:none"
           id="path3482" />
      </g>
    </g>
  </g>
</svg>
